<svg height="512pt" viewBox="0 0 512 512" width="512pt" xmlns="http://www.w3.org/2000/svg"><path d="m451 422v-60h-30v-197c0-90.980469-74.019531-165-165-165s-165 74.019531-165 165v197h-30v60h-61v90h512v-90zm-330-257c0-74.4375 60.5625-135 135-135s135 60.5625 135 135v197h-30v-197c0-57.898438-47.101562-105-105-105s-105 47.101562-105 105v197h-30zm210 197h-150v-197c0-41.355469 33.644531-75 75-75s75 33.644531 75 75zm-240 30h330v30h-330zm391 90h-452v-30h452zm0 0"/><path d="m211 150h90v30h-90zm0 0"/><path d="m211 210h90v30h-90zm0 0"/></svg>